# xmcd
#
# Track frame offsets:
#	150
#	23785
#	62653
#	100735
#	112836
#	169587
#
# Disc length: 2845 seconds
#
# Revision: 1
# Processed by: cddbd v1.5.1PL0 Copyright (c) Steve Scherf et al.
# Submitted via: audiograbber 1.82.01
#
DISCID=3d0b1b06
DTITLE=Edgar Winter - 2004-07-22 - Molson Amphitheatre,Toronto
DYEAR=1900
DGENRE=
TTITLE0=Edgar Winter - Keep On Playing That Rock And Roll
TTITLE1=Edgar Winter - Turn On Your Lovelight - Jam
TTITLE2=Edgar Winter - Freeride and Jam
TTITLE3=Edgar Winter - Pure Jam
TTITLE4=Edgar Winter - Frankenstein
TTITLE5=Edgar Winter - Tobacco Road
EXTD=
EXTT0=
EXTT1=
EXTT2=
EXTT3=
EXTT4=
EXTT5=
PLAYORDER=
